<svg width="15" height="8" viewBox="0 0 15 8" fill="none" xmlns="http://www.w3.org/2000/svg">
<path d="M7.54762 6.44845L1.22975 0.576542C1.17881 0.528173 1.11879 0.490386 1.05315 0.465368C0.987512 0.44035 0.917563 0.428597 0.847353 0.43079C0.777143 0.432983 0.708065 0.449079 0.644116 0.478146C0.580168 0.507212 0.522619 0.548671 0.474799 0.600126C0.426979 0.65158 0.389838 0.712007 0.365526 0.777909C0.341213 0.843812 0.330212 0.913883 0.333159 0.984066C0.336105 1.05425 0.352941 1.12315 0.382692 1.18678C0.412442 1.25042 0.454517 1.30752 0.506481 1.35478L7.20296 7.57793C7.30432 7.67213 7.43843 7.72305 7.57677 7.71988C7.7151 7.71671 7.84674 7.65969 7.94368 7.56095L14.3479 1.03745C14.3977 0.987857 14.4371 0.928889 14.4639 0.863959C14.4907 0.799029 14.5044 0.729429 14.5041 0.659185C14.5038 0.588941 14.4896 0.519448 14.4623 0.454729C14.435 0.390009 14.3951 0.331348 14.345 0.282139C14.2949 0.232931 14.2355 0.194152 14.1703 0.168047C14.1051 0.141942 14.0353 0.129028 13.9651 0.130055C13.8948 0.131082 13.8255 0.146028 13.7611 0.174028C13.6967 0.202028 13.6384 0.242525 13.5898 0.293178L7.54762 6.44845Z" fill="white"/>
</svg>
